<svg height="50" viewBox="0 0 41 50" width="41" xmlns="http://www.w3.org/2000/svg">
    <g fill="none" fill-rule="evenodd">
        <g fill="#000" fill-rule="nonzero">
            <g>
                <g>
                    <g>
                        <path
                            d="M13.6 50C6.157 49.957.001 34.767.001 27.03c0-12.637 9.48-15.403 13.134-15.403 1.646 0 3.404.646 4.955 1.218 1.084.4 2.206.811 2.83.811.373 0 1.253-.35 2.03-.658 1.656-.659 3.717-1.479 6.118-1.479h.014c1.792 0 7.227.394 10.494 5.3l.765 1.15-1.101.832c-1.574 1.187-4.445 3.353-4.445 7.643 0 5.081 3.252 7.035 4.814 7.975.69.415 1.403.843 1.403 1.778 0 .61-4.875 13.727-11.954 13.727-1.733 0-2.957-.52-4.037-.98-1.093-.465-2.036-.865-3.594-.865-.79 0-1.788.373-2.845.77-1.445.539-3.08 1.151-4.935 1.151h-.049zM29.819 0c.184 6.648-4.57 11.26-9.32 10.97C19.718 5.667 25.249 0 29.82 0z"
                            transform="translate(-285 -1199) translate(250 1086) translate(0 82) translate(35 31)" />
                    </g>
                </g>
            </g>
        </g>
    </g>
</svg>
