<svg height="50" viewBox="0 0 50 50" width="50" xmlns="http://www.w3.org/2000/svg">
    <g fill="none" fill-rule="evenodd">
        <g fill-rule="nonzero">
            <g>
                <g>
                    <g>
                        <path
                            d="M11.081 30.216l-1.74 6.497-6.362.134C1.08 33.321 0 29.287 0 25c0-4.146 1.008-8.055 2.795-11.497h.002L8.46 14.54l2.48 5.63c-.518 1.513-.801 3.138-.801 4.829 0 1.835.332 3.593.942 5.216z"
                            fill="#FBBB00"
                            transform="translate(-433 -1199) translate(250 1086) translate(152 82) translate(31 31)" />
                        <path
                            d="M49.563 20.33C49.85 21.842 50 23.404 50 25c0 1.79-.188 3.536-.547 5.22-1.217 5.73-4.397 10.735-8.802 14.276l-.001-.001-7.133-.364-1.01-6.303c2.923-1.714 5.207-4.397 6.41-7.608H25.55v-9.89H49.563z"
                            fill="#518EF8"
                            transform="translate(-433 -1199) translate(250 1086) translate(152 82) translate(31 31)" />
                        <path
                            d="M40.65 44.495h.001C36.367 47.94 30.924 50 25 50c-9.52 0-17.798-5.321-22.02-13.152l8.101-6.632C13.192 35.85 18.628 39.86 25 39.86c2.739 0 5.305-.74 7.507-2.033l8.143 6.667z"
                            fill="#28B446"
                            transform="translate(-433 -1199) translate(250 1086) translate(152 82) translate(31 31)" />
                        <path
                            d="M40.957 5.755l-8.099 6.63C30.58 10.963 27.886 10.14 25 10.14c-6.517 0-12.054 4.195-14.06 10.031l-8.143-6.667h-.002C6.956 5.48 15.338 0 25 0c6.066 0 11.628 2.16 15.957 5.755z"
                            fill="#F14336"
                            transform="translate(-433 -1199) translate(250 1086) translate(152 82) translate(31 31)" />
                    </g>
                </g>
            </g>
        </g>
    </g>
</svg>
